{
  "accessors": [
    {
      "bufferView": 2,
      "componentType": 5126,
      "count": 254,
      "max": [
        0.7378020286560059,
        1.0,
        0.7337610125541687
      ],
      "min": [
        -0.7378020286560059,
        0.847038984298706,
        -0.7337610125541687
      ],
      "type": "VEC3"
    },
    {
      "bufferView": 2,
      "byteOffset": 3048,
      "componentType": 5126,
      "count": 254,
      "max": [
        0.9997466206550598,
        1.0,
        0.9942710995674133
      ],
      "min": [
        -0.9997466206550598,
        -1.0,
        -0.9942710995674133
      ],
      "type": "VEC3"
    },
    {
      "bufferView": 3,
      "componentType": 5126,
      "count": 254,
      "max": [
        0.38434603810310364,
        0.38060587644577026,
        0.9883925318717957,
        1.0
      ],
      "min": [
        -0.9732936024665833,
        -0.9997466802597046,
        -0.38502267003059387,
        1.0
      ],
      "type": "VEC4"
    },
    {
      "bufferView": 1,
      "componentType": 5126,
      "count": 254,
      "max": [
        0.9059299826622009,
        0.9957020282745361
      ],
      "min": [
        0.003910259809345007,
        0.0042977300472557545
      ],
      "type": "VEC2"
    },
    {
      "bufferView": 1,
      "byteOffset": 2032,
      "componentType": 5126,
      "count": 254,
      "max": [
        0.9059299826622009,
        0.9957020282745361
      ],
      "min": [
        0.003910259809345007,
        0.0042977300472557545
      ],
      "type": "VEC2"
    },
    {
      "bufferView": 1,
      "byteOffset": 4064,
      "componentType": 5126,
      "count": 254,
      "max": [
        0.0,
        0.0
      ],
      "min": [
        0.0,
        0.0
      ],
      "type": "VEC2"
    },
    {
      "bufferView": 1,
      "byteOffset": 6096,
      "componentType": 5126,
      "count": 254,
      "max": [
        0.0,
        0.0
      ],
      "min": [
        0.0,
        0.0
      ],
      "type": "VEC2"
    },
    {
      "bufferView": 0,
      "componentType": 5125,
      "count": 1080,
      "type": "SCALAR"
    },
    {
      "bufferView": 2,
      "byteOffset": 6096,
      "componentType": 5126,
      "count": 768,
      "max": [
        0.5227900147438049,
        0.8483690023422241,
        0.522782027721405
      ],
      "min": [
        -0.5167809724807739,
        -0.5860750079154968,
        -0.5229120254516602
      ],
      "type": "VEC3"
    },
    {
      "bufferView": 2,
      "byteOffset": 15312,
      "componentType": 5126,
      "count": 768,
      "max": [
        0.999367356300354,
        0.9998748898506165,
        0.9996013641357422
      ],
      "min": [
        -0.9993979930877686,
        -0.9999744892120361,
        -0.9993782639503479
      ],
      "type": "VEC3"
    },
    {
      "bufferView": 3,
      "byteOffset": 4064,
      "componentType": 5126,
      "count": 768,
      "max": [
        0.9999010562896729,
        0.9998093247413635,
        0.9997488260269165,
        1.0
      ],
      "min": [
        -0.9995248913764954,
        -0.9998346567153931,
        -0.9999793171882629,
        1.0
      ],
      "type": "VEC4"
    },
    {
      "bufferView": 1,
      "byteOffset": 8128,
      "componentType": 5126,
      "count": 768,
      "max": [
        0.9234970211982727,
        0.9957020282745361
      ],
      "min": [
        0.003986080177128315,
        0.0042977300472557545
      ],
      "type": "VEC2"
    },
    {
      "bufferView": 1,
      "byteOffset": 14272,
      "componentType": 5126,
      "count": 768,
      "max": [
        0.0,
        0.0
      ],
      "min": [
        0.0,
        0.0
      ],
      "type": "VEC2"
    },
    {
      "bufferView": 1,
      "byteOffset": 20416,
      "componentType": 5126,
      "count": 768,
      "max": [
        0.0,
        0.0
      ],
      "min": [
        0.0,
        0.0
      ],
      "type": "VEC2"
    },
    {
      "bufferView": 1,
      "byteOffset": 26560,
      "componentType": 5126,
      "count": 768,
      "max": [
        0.9234970211982727,
        0.9957020282745361
      ],
      "min": [
        0.003986080177128315,
        0.0042977300472557545
      ],
      "type": "VEC2"
    },
    {
      "bufferView": 0,
      "byteOffset": 4320,
      "componentType": 5125,
      "count": 2592,
      "type": "SCALAR"
    },
    {
      "bufferView": 2,
      "byteOffset": 24528,
      "componentType": 5126,
      "count": 384,
      "max": [
        0.5662310123443604,
        0.8502640128135681,
        0.5662310123443604
      ],
      "min": [
        -0.5662299990653992,
        -1.0,
        -0.5662299990653992
      ],
      "type": "VEC3"
    },
    {
      "bufferView": 2,
      "byteOffset": 29136,
      "componentType": 5126,
      "count": 384,
      "max": [
        0.9952837824821472,
        0.9993513822555542,
        0.9953477382659912
      ],
      "min": [
        -0.9949619770050049,
        -0.9994449019432068,
        -0.9953257441520691
      ],
      "type": "VEC3"
    },
    {
      "bufferView": 3,
      "byteOffset": 16352,
      "componentType": 5126,
      "count": 384,
      "max": [
        0.9999099969863892,
        0.41435715556144714,
        0.9990918636322021,
        1.0
      ],
      "min": [
        -0.9998961091041565,
        -0.6339688897132874,
        -0.9974926114082336,
        1.0
      ],
      "type": "VEC4"
    },
    {
      "bufferView": 1,
      "byteOffset": 32704,
      "componentType": 5126,
      "count": 384,
      "max": [
        0.9957020282745361,
        0.9943659901618958
      ],
      "min": [
        0.004297739826142788,
        0.004291969817131758
      ],
      "type": "VEC2"
    },
    {
      "bufferView": 1,
      "byteOffset": 35776,
      "componentType": 5126,
      "count": 384,
      "max": [
        0.0,
        0.0
      ],
      "min": [
        0.0,
        0.0
      ],
      "type": "VEC2"
    },
    {
      "bufferView": 1,
      "byteOffset": 38848,
      "componentType": 5126,
      "count": 384,
      "max": [
        0.9957020282745361,
        0.9943659901618958
      ],
      "min": [
        0.004297739826142788,
        0.004291969817131758
      ],
      "type": "VEC2"
    },
    {
      "bufferView": 1,
      "byteOffset": 41920,
      "componentType": 5126,
      "count": 384,
      "max": [
        0.0,
        0.0
      ],
      "min": [
        0.0,
        0.0
      ],
      "type": "VEC2"
    },
    {
      "bufferView": 0,
      "byteOffset": 14688,
      "componentType": 5125,
      "count": 1296,
      "type": "SCALAR"
    }
  ],
  "asset": {
    "extras": {
      "author": "RachelC (https://sketchfab.com/rachelclarkediting)",
      "license": "CC-BY-NC-4.0 (http://creativecommons.org/licenses/by-nc/4.0/)",
      "source": "https://sketchfab.com/3d-models/wooden-stool-a58ae667aa1b43e789211047b8aae27c",
      "title": "Wooden Stool"
    },
    "generator": "Sketchfab-12.66.0",
    "version": "2.0"
  },
  "bufferViews": [
    {
      "buffer": 0,
      "byteLength": 19872,
      "name": "floatBufferViews",
      "target": 34963
    },
    {
      "buffer": 0,
      "byteLength": 44992,
      "byteOffset": 19872,
      "byteStride": 8,
      "name": "floatBufferViews",
      "target": 34962
    },
    {
      "buffer": 0,
      "byteLength": 33744,
      "byteOffset": 64864,
      "byteStride": 12,
      "name": "floatBufferViews",
      "target": 34962
    },
    {
      "buffer": 0,
      "byteLength": 22496,
      "byteOffset": 98608,
      "byteStride": 16,
      "name": "floatBufferViews",
      "target": 34962
    }
  ],
  "buffers": [
    {
      "byteLength": 121104,
      "uri": "scene.bin"
    }
  ],
  "images": [
    {
      "uri": "textures/Stool_legs_baseColor.jpeg"
    },
    {
      "uri": "textures/Stool_legs_metallicRoughness.png"
    },
    {
      "uri": "textures/Stool_legs_normal.png"
    },
    {
      "uri": "textures/Stool_supports_baseColor.jpeg"
    },
    {
      "uri": "textures/Stool_supports_metallicRoughness.png"
    },
    {
      "uri": "textures/Stool_supports_normal.png"
    },
    {
      "uri": "textures/Stool_top_baseColor.jpeg"
    },
    {
      "uri": "textures/Stool_top_metallicRoughness.png"
    },
    {
      "uri": "textures/Stool_top_normal.png"
    }
  ],
  "materials": [
    {
      "doubleSided": true,
      "name": "Stool_legs",
      "normalTexture": {
        "index": 2
      },
      "occlusionTexture": {
        "index": 1
      },
      "pbrMetallicRoughness": {
        "baseColorTexture": {
          "index": 0
        },
        "metallicRoughnessTexture": {
          "index": 1
        }
      }
    },
    {
      "doubleSided": true,
      "name": "Stool_supports",
      "normalTexture": {
        "index": 5
      },
      "occlusionTexture": {
        "index": 4
      },
      "pbrMetallicRoughness": {
        "baseColorTexture": {
          "index": 3
        },
        "metallicRoughnessTexture": {
          "index": 4
        }
      }
    },
    {
      "doubleSided": true,
      "name": "Stool_top",
      "normalTexture": {
        "index": 8
      },
      "occlusionTexture": {
        "index": 7
      },
      "pbrMetallicRoughness": {
        "baseColorTexture": {
          "index": 6
        },
        "metallicRoughnessTexture": {
          "index": 7
        }
      }
    }
  ],
  "meshes": [
    {
      "name": "defaultMaterial",
      "primitives": [
        {
          "attributes": {
            "NORMAL": 1,
            "POSITION": 0,
            "TANGENT": 2,
            "TEXCOORD_0": 3,
            "TEXCOORD_1": 4,
            "TEXCOORD_2": 5,
            "TEXCOORD_3": 6
          },
          "indices": 7,
          "material": 2,
          "mode": 4
        }
      ]
    },
    {
      "name": "defaultMaterial",
      "primitives": [
        {
          "attributes": {
            "NORMAL": 9,
            "POSITION": 8,
            "TANGENT": 10,
            "TEXCOORD_0": 11,
            "TEXCOORD_1": 12,
            "TEXCOORD_2": 13,
            "TEXCOORD_3": 14
          },
          "indices": 15,
          "material": 1,
          "mode": 4
        }
      ]
    },
    {
      "name": "defaultMaterial",
      "primitives": [
        {
          "attributes": {
            "NORMAL": 17,
            "POSITION": 16,
            "TANGENT": 18,
            "TEXCOORD_0": 19,
            "TEXCOORD_1": 20,
            "TEXCOORD_2": 21,
            "TEXCOORD_3": 22
          },
          "indices": 23,
          "material": 0,
          "mode": 4
        }
      ]
    }
  ],
  "nodes": [
    {
      "children": [
        1
      ],
      "matrix": [
        1.0,
        0.0,
        0.0,
        0.0,
        0.0,
        2.220446049250313e-16,
        -1.0,
        0.0,
        0.0,
        1.0,
        2.220446049250313e-16,
        0.0,
        0.0,
        0.0,
        0.0,
        1.0
      ],
      "name": "Sketchfab_model"
    },
    {
      "children": [
        2,
        4,
        6
      ],
      "matrix": [
        1.0,
        0.0,
        0.0,
        0.0,
        0.0,
        -4.371139006309477e-08,
        0.999999999999999,
        0.0,
        0.0,
        -0.999999999999999,
        -4.371139006309477e-08,
        0.0,
        0.0,
        0.0,
        0.0,
        1.0
      ],
      "name": "Collada visual scene group"
    },
    {
      "children": [
        3
      ],
      "name": "polySurface1"
    },
    {
      "mesh": 0,
      "name": "defaultMaterial"
    },
    {
      "children": [
        5
      ],
      "name": "polySurface1"
    },
    {
      "mesh": 1,
      "name": "defaultMaterial"
    },
    {
      "children": [
        7
      ],
      "name": "polySurface1"
    },
    {
      "mesh": 2,
      "name": "defaultMaterial"
    }
  ],
  "samplers": [
    {
      "magFilter": 9729,
      "minFilter": 9987,
      "wrapS": 10497,
      "wrapT": 10497
    }
  ],
  "scene": 0,
  "scenes": [
    {
      "name": "Sketchfab_Scene",
      "nodes": [
        0
      ]
    }
  ],
  "textures": [
    {
      "sampler": 0,
      "source": 0
    },
    {
      "sampler": 0,
      "source": 1
    },
    {
      "sampler": 0,
      "source": 2
    },
    {
      "sampler": 0,
      "source": 3
    },
    {
      "sampler": 0,
      "source": 4
    },
    {
      "sampler": 0,
      "source": 5
    },
    {
      "sampler": 0,
      "source": 6
    },
    {
      "sampler": 0,
      "source": 7
    },
    {
      "sampler": 0,
      "source": 8
    }
  ]
}
