{
  "accessors": [
    {
      "bufferView": 2,
      "componentType": 5126,
      "count": 740,
      "max": [
        10.004034996032715,
        10.013504981994629,
        7.914344787597656
      ],
      "min": [
        -10.00403118133545,
        -10.013504981994629,
        -7.914344787597656
      ],
      "type": "VEC3"
    },
    {
      "bufferView": 2,
      "byteOffset": 8880,
      "componentType": 5126,
      "count": 740,
      "max": [
        0.9984697699546814,
        0.9984699487686157,
        1.0
      ],
      "min": [
        -0.9984697103500366,
        -0.9984697699546814,
        -1.0
      ],
      "type": "VEC3"
    },
    {
      "bufferView": 3,
      "componentType": 5126,
      "count": 740,
      "max": [
        0.9984699487686157,
        0.9996834993362427,
        0.6778468489646912,
        1.0
      ],
      "min": [
        -0.9984697699546814,
        -1.0,
        -0.677848219871521,
        1.0
      ],
      "type": "VEC4"
    },
    {
      "bufferView": 1,
      "componentType": 5126,
      "count": 740,
      "max": [
        0.9799787998199463,
        0.9956656098365784
      ],
      "min": [
        0.00411713682115078,
        0.014811277389526367
      ],
      "type": "VEC2"
    },
    {
      "bufferView": 1,
      "byteOffset": 5920,
      "componentType": 5126,
      "count": 740,
      "max": [
        0.9799787998199463,
        0.9956656098365784
      ],
      "min": [
        0.00411713682115078,
        0.014811277389526367
      ],
      "type": "VEC2"
    },
    {
      "bufferView": 1,
      "byteOffset": 11840,
      "componentType": 5126,
      "count": 740,
      "max": [
        0.9799787998199463,
        0.9956656098365784
      ],
      "min": [
        0.00411713682115078,
        0.014811277389526367
      ],
      "type": "VEC2"
    },
    {
      "bufferView": 0,
      "componentType": 5125,
      "count": 2580,
      "type": "SCALAR"
    }
  ],
  "asset": {
    "extras": {
      "author": "plaggy (https://sketchfab.com/plaggy)",
      "license": "CC-BY-4.0 (http://creativecommons.org/licenses/by/4.0/)",
      "source": "https://sketchfab.com/3d-models/cc0-table-6-0a72d5acb0fa41a1ac48d4f07e9a4417",
      "title": "CC0 - Table 6"
    },
    "generator": "Sketchfab-14.13.0",
    "version": "2.0"
  },
  "bufferViews": [
    {
      "buffer": 0,
      "byteLength": 10320,
      "name": "floatBufferViews",
      "target": 34963
    },
    {
      "buffer": 0,
      "byteLength": 17760,
      "byteOffset": 10320,
      "byteStride": 8,
      "name": "floatBufferViews",
      "target": 34962
    },
    {
      "buffer": 0,
      "byteLength": 17760,
      "byteOffset": 28080,
      "byteStride": 12,
      "name": "floatBufferViews",
      "target": 34962
    },
    {
      "buffer": 0,
      "byteLength": 11840,
      "byteOffset": 45840,
      "byteStride": 16,
      "name": "floatBufferViews",
      "target": 34962
    }
  ],
  "buffers": [
    {
      "byteLength": 57680,
      "uri": "scene.bin"
    }
  ],
  "images": [
    {
      "uri": "textures/Table6_baseColor.png"
    },
    {
      "uri": "textures/Table6_metallicRoughness.png"
    },
    {
      "uri": "textures/Table6_normal.png"
    }
  ],
  "materials": [
    {
      "name": "Table6",
      "normalTexture": {
        "index": 2
      },
      "occlusionTexture": {
        "index": 1
      },
      "pbrMetallicRoughness": {
        "baseColorTexture": {
          "index": 0
        },
        "metallicRoughnessTexture": {
          "index": 1
        }
      }
    }
  ],
  "meshes": [
    {
      "name": "Table6_Table6_0",
      "primitives": [
        {
          "attributes": {
            "NORMAL": 1,
            "POSITION": 0,
            "TANGENT": 2,
            "TEXCOORD_0": 3,
            "TEXCOORD_1": 4,
            "TEXCOORD_2": 5
          },
          "indices": 6,
          "material": 0,
          "mode": 4
        }
      ]
    }
  ],
  "nodes": [
    {
      "children": [
        1
      ],
      "matrix": [
        1.0,
        0.0,
        0.0,
        0.0,
        0.0,
        2.220446049250313e-16,
        -1.0,
        0.0,
        0.0,
        1.0,
        2.220446049250313e-16,
        0.0,
        0.0,
        0.0,
        0.0,
        1.0
      ],
      "name": "Sketchfab_model"
    },
    {
      "children": [
        2
      ],
      "matrix": [
        0.02539999969303608,
        0.0,
        0.0,
        0.0,
        0.0,
        0.0,
        0.02539999969303608,
        0.0,
        0.0,
        -0.02539999969303608,
        0.0,
        0.0,
        0.0,
        0.0,
        0.0,
        1.0
      ],
      "name": "75edab54c1934404bfd04aaae5a585ba.fbx"
    },
    {
      "children": [
        3
      ],
      "name": "RootNode"
    },
    {
      "children": [
        4
      ],
      "matrix": [
        1.0,
        0.0,
        0.0,
        0.0,
        0.0,
        2.220446049250313e-16,
        -1.0,
        0.0,
        0.0,
        1.0,
        2.220446049250313e-16,
        0.0,
        0.0,
        0.0,
        0.0,
        1.0
      ],
      "name": "Table6"
    },
    {
      "mesh": 0,
      "name": "Table6_Table6_0"
    }
  ],
  "samplers": [
    {
      "magFilter": 9729,
      "minFilter": 9987,
      "wrapS": 10497,
      "wrapT": 10497
    }
  ],
  "scene": 0,
  "scenes": [
    {
      "name": "Sketchfab_Scene",
      "nodes": [
        0
      ]
    }
  ],
  "textures": [
    {
      "sampler": 0,
      "source": 0
    },
    {
      "sampler": 0,
      "source": 1
    },
    {
      "sampler": 0,
      "source": 2
    }
  ]
}
