{
	"asset":
	{
		"version": "2.0",
		"generator": "Unreal Engine 5.3.2"
	},
	"scene": 0,
	"accessors": [
		{
			"bufferView": 0,
			"count": 20649,
			"type": "SCALAR",
			"componentType": 5123
		},
		{
			"bufferView": 1,
			"count": 4390,
			"type": "VEC3",
			"componentType": 5126,
			"min": [ -1.30377913, -4.11093822e-07, -1.1774348 ],
			"max": [ 1.01700318, 1.12856686, 1.1768167 ]
		},
		{
			"bufferView": 2,
			"count": 4390,
			"type": "VEC3",
			"componentType": 5126
		},
		{
			"bufferView": 3,
			"count": 4390,
			"type": "VEC4",
			"componentType": 5126
		},
		{
			"bufferView": 4,
			"count": 4390,
			"type": "VEC2",
			"componentType": 5126
		},
		{
			"bufferView": 5,
			"count": 4390,
			"type": "VEC2",
			"componentType": 5126
		}
	],
	"buffers": [
		{
			"uri": "bed3.bin",
			"byteLength": 287140
		}
	],
	"bufferViews": [
		{
			"buffer": 0,
			"byteLength": 41298,
			"target": 34963
		},
		{
			"buffer": 0,
			"byteLength": 52680,
			"byteOffset": 41300,
			"target": 34962
		},
		{
			"buffer": 0,
			"byteLength": 52680,
			"byteOffset": 93980,
			"target": 34962
		},
		{
			"buffer": 0,
			"byteLength": 70240,
			"byteOffset": 146660,
			"target": 34962
		},
		{
			"buffer": 0,
			"byteLength": 35120,
			"byteOffset": 216900,
			"target": 34962
		},
		{
			"buffer": 0,
			"byteLength": 35120,
			"byteOffset": 252020,
			"target": 34962
		}
	],
	"images": [
		{
			"uri": "M_Modern_Bed_2_Occlusion.png"
		},
		{
			"uri": "T_Modern_Bed_2_A.png"
		},
		{
			"uri": "T_Modern_Bed_2_AO_R_M_Linear.png"
		},
		{
			"uri": "T_Modern_Bed_2_N.png"
		}
	],
	"materials": [
		{
			"name": "M_Modern_Bed_2",
			"pbrMetallicRoughness":
			{
				"baseColorTexture":
				{
					"index": 0
				},
				"metallicRoughnessTexture":
				{
					"index": 1
				}
			},
			"normalTexture":
			{
				"index": 2
			},
			"occlusionTexture":
			{
				"index": 3
			}
		}
	],
	"meshes": [
		{
			"name": "SM_Modern_Bed_2",
			"primitives": [
				{
					"attributes":
					{
						"POSITION": 1,
						"NORMAL": 2,
						"TANGENT": 3,
						"TEXCOORD_0": 4,
						"TEXCOORD_1": 5
					},
					"indices": 0,
					"material": 0
				}
			]
		}
	],
	"nodes": [
		{
			"mesh": 0
		}
	],
	"samplers": [
		{
			"minFilter": 9984,
			"magFilter": 9728
		},
		{
			"minFilter": 9987,
			"magFilter": 9729
		}
	],
	"scenes": [
		{
			"nodes": [ 0 ]
		}
	],
	"textures": [
		{
			"name": "T_Modern_Bed_2_A",
			"sampler": 1,
			"source": 1
		},
		{
			"name": "T_Modern_Bed_2_AO_R_M_Linear",
			"sampler": 1,
			"source": 2
		},
		{
			"name": "T_Modern_Bed_2_N",
			"sampler": 1,
			"source": 3
		},
		{
			"name": "M_Modern_Bed_2_Occlusion",
			"sampler": 0,
			"source": 0
		}
	]
}