{
	"asset":
	{
		"version": "2.0",
		"generator": "Unreal Engine 5.2.1"
	},
	"scene": 0,
	"accessors": [
		{
			"bufferView": 0,
			"count": 3228,
			"type": "SCALAR",
			"componentType": 5123
		},
		{
			"bufferView": 1,
			"count": 662,
			"type": "VEC3",
			"componentType": 5126,
			"min": [ -0.0485006087, -6.94703249e-06, -0.047763776 ],
			"max": [ 0.0485006087, 0.193369418, 0.047763776 ]
		},
		{
			"bufferView": 2,
			"count": 662,
			"type": "VEC3",
			"componentType": 5126
		},
		{
			"bufferView": 3,
			"count": 662,
			"type": "VEC4",
			"componentType": 5126
		},
		{
			"bufferView": 4,
			"count": 662,
			"type": "VEC2",
			"componentType": 5126
		},
		{
			"bufferView": 5,
			"count": 662,
			"type": "VEC2",
			"componentType": 5126
		}
	],
	"buffers": [
		{
			"uri": "bottle.bin",
			"byteLength": 43528
		}
	],
	"bufferViews": [
		{
			"buffer": 0,
			"byteLength": 6456,
			"target": 34963
		},
		{
			"buffer": 0,
			"byteLength": 7944,
			"byteOffset": 6456,
			"target": 34962
		},
		{
			"buffer": 0,
			"byteLength": 7944,
			"byteOffset": 14400,
			"target": 34962
		},
		{
			"buffer": 0,
			"byteLength": 10592,
			"byteOffset": 22344,
			"target": 34962
		},
		{
			"buffer": 0,
			"byteLength": 5296,
			"byteOffset": 32936,
			"target": 34962
		},
		{
			"buffer": 0,
			"byteLength": 5296,
			"byteOffset": 38232,
			"target": 34962
		}
	],
	"images": [
		{
			"uri": "M_GlassProps_Dirt_SM_Bottle_BaseColor.png"
		},
		{
			"uri": "M_GlassProps_Dirt_SM_Bottle_MetallicRoughness.png"
		},
		{
			"uri": "M_GlassProps_Dirt_SM_Bottle_Emissive.png"
		},
		{
			"uri": "M_GlassProps_Dirt_SM_Bottle_Normal.png"
		}
	],
	"materials": [
		{
			"name": "M_GlassProps_Dirt_SM_Bottle",
			"pbrMetallicRoughness":
			{
				"baseColorTexture":
				{
					"index": 0,
					"texCoord": 1
				},
				"metallicRoughnessTexture":
				{
					"index": 1,
					"texCoord": 1
				}
			},
			"normalTexture":
			{
				"index": 3,
				"texCoord": 1
			},
			"emissiveTexture":
			{
				"index": 2,
				"texCoord": 1
			},
			"emissiveFactor": [ 0.00585174561, 0.00585174561, 0.00585174561 ],
			"alphaMode": "BLEND"
		}
	],
	"meshes": [
		{
			"name": "SM_Bottle",
			"primitives": [
				{
					"attributes":
					{
						"POSITION": 1,
						"NORMAL": 2,
						"TANGENT": 3,
						"TEXCOORD_0": 4,
						"TEXCOORD_1": 5
					},
					"indices": 0,
					"material": 0
				}
			]
		}
	],
	"nodes": [
		{
			"mesh": 0
		}
	],
	"samplers": [
		{
			"minFilter": 9987,
			"magFilter": 9729
		}
	],
	"scenes": [
		{
			"nodes": [ 0 ]
		}
	],
	"textures": [
		{
			"name": "M_GlassProps_Dirt_SM_Bottle_BaseColor",
			"sampler": 0,
			"source": 0
		},
		{
			"name": "M_GlassProps_Dirt_SM_Bottle_MetallicRoughness",
			"sampler": 0,
			"source": 1
		},
		{
			"name": "M_GlassProps_Dirt_SM_Bottle_Emissive",
			"sampler": 0,
			"source": 2
		},
		{
			"name": "M_GlassProps_Dirt_SM_Bottle_Normal",
			"sampler": 0,
			"source": 3
		}
	]
}