{
	"asset":
	{
		"version": "2.0",
		"generator": "Unreal Engine 5.3.2"
	},
	"scene": 0,
	"accessors": [
		{
			"bufferView": 0,
			"count": 188466,
			"type": "SCALAR",
			"componentType": 5123
		},
		{
			"bufferView": 1,
			"count": 33864,
			"type": "VEC3",
			"componentType": 5126,
			"min": [ -0.0772254467, -5.04970558e-06, -0.0772648677 ],
			"max": [ 0.0936381891, 0.260318935, 0.0771301836 ]
		},
		{
			"bufferView": 2,
			"count": 33864,
			"type": "VEC3",
			"componentType": 5126
		},
		{
			"bufferView": 3,
			"count": 33864,
			"type": "VEC4",
			"componentType": 5126
		},
		{
			"bufferView": 4,
			"count": 33864,
			"type": "VEC2",
			"componentType": 5126
		}
	],
	"buffers": [
		{
			"uri": "cactus.bin",
			"byteLength": 2002404
		}
	],
	"bufferViews": [
		{
			"buffer": 0,
			"byteLength": 376932,
			"target": 34963
		},
		{
			"buffer": 0,
			"byteLength": 406368,
			"byteOffset": 376932,
			"target": 34962
		},
		{
			"buffer": 0,
			"byteLength": 406368,
			"byteOffset": 783300,
			"target": 34962
		},
		{
			"buffer": 0,
			"byteLength": 541824,
			"byteOffset": 1189668,
			"target": 34962
		},
		{
			"buffer": 0,
			"byteLength": 270912,
			"byteOffset": 1731492,
			"target": 34962
		}
	],
	"images": [
		{
			"uri": "MI_CactusSculpture03_SM_CactusSculpture03_BaseColor.png"
		},
		{
			"uri": "MI_CactusSculpture03_SM_CactusSculpture03_MetallicRoughness.png"
		},
		{
			"uri": "MI_CactusSculpture03_SM_CactusSculpture03_Normal.png"
		}
	],
	"materials": [
		{
			"name": "MI_CactusSculpture03_SM_CactusSculpture03",
			"pbrMetallicRoughness":
			{
				"baseColorTexture":
				{
					"index": 0,
					"extensions":
					{
						"KHR_texture_transform":
						{
							"offset": [ -0.000500464172, -0.0341820903 ],
							"scale": [ 1.00147843, 1.03519297 ]
						}
					}
				},
				"metallicRoughnessTexture":
				{
					"index": 1,
					"extensions":
					{
						"KHR_texture_transform":
						{
							"offset": [ -0.000500464172, -0.0341820903 ],
							"scale": [ 1.00147843, 1.03519297 ]
						}
					}
				}
			},
			"normalTexture":
			{
				"index": 2,
				"extensions":
				{
					"KHR_texture_transform":
					{
						"offset": [ -0.000500464172, -0.0341820903 ],
						"scale": [ 1.00147843, 1.03519297 ]
					}
				}
			},
			"alphaMode": "MASK",
			"alphaCutoff": 0.333299994
		}
	],
	"meshes": [
		{
			"name": "SM_CactusSculpture03",
			"primitives": [
				{
					"attributes":
					{
						"POSITION": 1,
						"NORMAL": 2,
						"TANGENT": 3,
						"TEXCOORD_0": 4
					},
					"indices": 0,
					"material": 0
				}
			]
		}
	],
	"nodes": [
		{
			"mesh": 0
		}
	],
	"samplers": [
		{
			"minFilter": 9987,
			"magFilter": 9729
		}
	],
	"scenes": [
		{
			"nodes": [ 0 ]
		}
	],
	"textures": [
		{
			"name": "MI_CactusSculpture03_SM_CactusSculpture03_BaseColor",
			"sampler": 0,
			"source": 0
		},
		{
			"name": "MI_CactusSculpture03_SM_CactusSculpture03_MetallicRoughness",
			"sampler": 0,
			"source": 1
		},
		{
			"name": "MI_CactusSculpture03_SM_CactusSculpture03_Normal",
			"sampler": 0,
			"source": 2
		}
	],
	"extensionsUsed": [
		"KHR_texture_transform"
	]
}