{
	"asset":
	{
		"version": "2.0",
		"generator": "Unreal Engine 5.3.2"
	},
	"scene": 0,
	"accessors": [
		{
			"bufferView": 0,
			"count": 3768,
			"type": "SCALAR",
			"componentType": 5123
		},
		{
			"bufferView": 1,
			"count": 887,
			"type": "VEC3",
			"componentType": 5126,
			"min": [ -0.469509304, 0.000129412219, -0.469509304 ],
			"max": [ 0.469509453, 0.36512965, 0.469509333 ]
		},
		{
			"bufferView": 2,
			"count": 887,
			"type": "VEC3",
			"componentType": 5126
		},
		{
			"bufferView": 3,
			"count": 887,
			"type": "VEC4",
			"componentType": 5126
		},
		{
			"bufferView": 4,
			"count": 887,
			"type": "VEC2",
			"componentType": 5126
		},
		{
			"bufferView": 5,
			"count": 887,
			"type": "VEC2",
			"componentType": 5126
		}
	],
	"buffers": [
		{
			"uri": "coffee_table.bin",
			"byteLength": 57208
		}
	],
	"bufferViews": [
		{
			"buffer": 0,
			"byteLength": 7536,
			"target": 34963
		},
		{
			"buffer": 0,
			"byteLength": 10644,
			"byteOffset": 7536,
			"target": 34962
		},
		{
			"buffer": 0,
			"byteLength": 10644,
			"byteOffset": 18180,
			"target": 34962
		},
		{
			"buffer": 0,
			"byteLength": 14192,
			"byteOffset": 28824,
			"target": 34962
		},
		{
			"buffer": 0,
			"byteLength": 7096,
			"byteOffset": 43016,
			"target": 34962
		},
		{
			"buffer": 0,
			"byteLength": 7096,
			"byteOffset": 50112,
			"target": 34962
		}
	],
	"images": [
		{
			"uri": "M_Coffee_Table_BaseColor.png"
		},
		{
			"uri": "M_Coffee_Table_MetallicRoughness.png"
		}
	],
	"materials": [
		{
			"name": "M_Coffee_Table",
			"pbrMetallicRoughness":
			{
				"baseColorTexture":
				{
					"index": 0
				},
				"metallicRoughnessTexture":
				{
					"index": 1
				}
			}
		}
	],
	"meshes": [
		{
			"name": "SM_Coffee_Table",
			"primitives": [
				{
					"attributes":
					{
						"POSITION": 1,
						"NORMAL": 2,
						"TANGENT": 3,
						"TEXCOORD_0": 4,
						"TEXCOORD_1": 5
					},
					"indices": 0,
					"material": 0
				}
			]
		}
	],
	"nodes": [
		{
			"mesh": 0
		}
	],
	"samplers": [
		{
			"minFilter": 9987,
			"magFilter": 9729
		}
	],
	"scenes": [
		{
			"nodes": [ 0 ]
		}
	],
	"textures": [
		{
			"name": "M_Coffee_Table_BaseColor",
			"sampler": 0,
			"source": 0
		},
		{
			"name": "M_Coffee_Table_MetallicRoughness",
			"sampler": 0,
			"source": 1
		}
	]
}