{
	"asset":
	{
		"version": "2.0",
		"generator": "Unreal Engine 5.3.2"
	},
	"scene": 0,
	"accessors": [
		{
			"bufferView": 0,
			"count": 2310,
			"type": "SCALAR",
			"componentType": 5123
		},
		{
			"bufferView": 1,
			"count": 461,
			"type": "VEC3",
			"componentType": 5126,
			"min": [ -0.0215727985, 7.62939436e-08, -0.0210873783 ],
			"max": [ 0.0215727985, 0.132966846, 0.114892013 ]
		},
		{
			"bufferView": 2,
			"count": 461,
			"type": "VEC3",
			"componentType": 5126
		},
		{
			"bufferView": 3,
			"count": 461,
			"type": "VEC4",
			"componentType": 5126
		},
		{
			"bufferView": 4,
			"count": 461,
			"type": "VEC2",
			"componentType": 5126
		}
	],
	"buffers": [
		{
			"uri": "faucet.bin",
			"byteLength": 26748
		}
	],
	"bufferViews": [
		{
			"buffer": 0,
			"byteLength": 4620,
			"target": 34963
		},
		{
			"buffer": 0,
			"byteLength": 5532,
			"byteOffset": 4620,
			"target": 34962
		},
		{
			"buffer": 0,
			"byteLength": 5532,
			"byteOffset": 10152,
			"target": 34962
		},
		{
			"buffer": 0,
			"byteLength": 7376,
			"byteOffset": 15684,
			"target": 34962
		},
		{
			"buffer": 0,
			"byteLength": 3688,
			"byteOffset": 23060,
			"target": 34962
		}
	],
	"materials": [
		{
			"name": "MI_MetalChromeClean01_SM_BathroomFaucet04",
			"pbrMetallicRoughness":
			{
				"baseColorFactor": [ 0.846873224, 0.846873224, 0.846873224, 1 ],
				"roughnessFactor": 0.0980392247
			},
			"alphaMode": "MASK",
			"alphaCutoff": 0.333299994
		}
	],
	"meshes": [
		{
			"name": "SM_BathroomFaucet04",
			"primitives": [
				{
					"attributes":
					{
						"POSITION": 1,
						"NORMAL": 2,
						"TANGENT": 3,
						"TEXCOORD_0": 4
					},
					"indices": 0,
					"material": 0
				}
			]
		}
	],
	"nodes": [
		{
			"mesh": 0
		}
	],
	"scenes": [
		{
			"nodes": [ 0 ]
		}
	]
}