{
	"asset":
	{
		"version": "2.0",
		"generator": "Unreal Engine 5.3.2"
	},
	"scene": 0,
	"accessors": [
		{
			"bufferView": 0,
			"count": 23430,
			"type": "SCALAR",
			"componentType": 5123
		},
		{
			"bufferView": 1,
			"count": 4751,
			"type": "VEC3",
			"componentType": 5126,
			"min": [ -0.099560231, -4.76837148e-09, -0.0462315679 ],
			"max": [ 0.099560231, 0.222018272, 0.0460571311 ]
		},
		{
			"bufferView": 2,
			"count": 4751,
			"type": "VEC3",
			"componentType": 5126
		},
		{
			"bufferView": 3,
			"count": 4751,
			"type": "VEC4",
			"componentType": 5126
		},
		{
			"bufferView": 4,
			"count": 4751,
			"type": "VEC2",
			"componentType": 5126
		},
		{
			"bufferView": 5,
			"count": 4751,
			"type": "VEC2",
			"componentType": 5126
		}
	],
	"buffers": [
		{
			"uri": "headset.bin",
			"byteLength": 312916
		}
	],
	"bufferViews": [
		{
			"buffer": 0,
			"byteLength": 46860,
			"target": 34963
		},
		{
			"buffer": 0,
			"byteLength": 57012,
			"byteOffset": 46860,
			"target": 34962
		},
		{
			"buffer": 0,
			"byteLength": 57012,
			"byteOffset": 103872,
			"target": 34962
		},
		{
			"buffer": 0,
			"byteLength": 76016,
			"byteOffset": 160884,
			"target": 34962
		},
		{
			"buffer": 0,
			"byteLength": 38008,
			"byteOffset": 236900,
			"target": 34962
		},
		{
			"buffer": 0,
			"byteLength": 38008,
			"byteOffset": 274908,
			"target": 34962
		}
	],
	"images": [
		{
			"uri": "MI_Headset01_BaseColor.png"
		},
		{
			"uri": "MI_Headset01_MetallicRoughness.png"
		},
		{
			"uri": "MI_Headset01_Normal.png"
		}
	],
	"materials": [
		{
			"name": "MI_Headset01",
			"pbrMetallicRoughness":
			{
				"baseColorTexture":
				{
					"index": 0
				},
				"metallicRoughnessTexture":
				{
					"index": 1
				}
			},
			"normalTexture":
			{
				"index": 2
			},
			"alphaMode": "MASK"
		}
	],
	"meshes": [
		{
			"name": "SM_Headset01",
			"primitives": [
				{
					"attributes":
					{
						"POSITION": 1,
						"NORMAL": 2,
						"TANGENT": 3,
						"TEXCOORD_0": 4,
						"TEXCOORD_1": 5
					},
					"indices": 0,
					"material": 0
				}
			]
		}
	],
	"nodes": [
		{
			"mesh": 0
		}
	],
	"samplers": [
		{
			"minFilter": 9987,
			"magFilter": 9729
		}
	],
	"scenes": [
		{
			"nodes": [ 0 ]
		}
	],
	"textures": [
		{
			"name": "MI_Headset01_BaseColor",
			"sampler": 0,
			"source": 0
		},
		{
			"name": "MI_Headset01_MetallicRoughness",
			"sampler": 0,
			"source": 1
		},
		{
			"name": "MI_Headset01_Normal",
			"sampler": 0,
			"source": 2
		}
	]
}