{
	"asset":
	{
		"version": "2.0",
		"generator": "Unreal Engine 5.3.2"
	},
	"scene": 0,
	"accessors": [
		{
			"bufferView": 0,
			"count": 5160,
			"type": "SCALAR",
			"componentType": 5123
		},
		{
			"bufferView": 1,
			"count": 1202,
			"type": "VEC3",
			"componentType": 5126,
			"min": [ -0.0206772611, 3.81469718e-08, -0.021455897 ],
			"max": [ 0.0206774138, 0.150502279, 0.0995356366 ]
		},
		{
			"bufferView": 2,
			"count": 1202,
			"type": "VEC3",
			"componentType": 5126
		},
		{
			"bufferView": 3,
			"count": 1202,
			"type": "VEC4",
			"componentType": 5126
		},
		{
			"bufferView": 4,
			"count": 1202,
			"type": "VEC2",
			"componentType": 5126
		}
	],
	"buffers": [
		{
			"uri": "kitchenfaucet.bin",
			"byteLength": 68016
		}
	],
	"bufferViews": [
		{
			"buffer": 0,
			"byteLength": 10320,
			"target": 34963
		},
		{
			"buffer": 0,
			"byteLength": 14424,
			"byteOffset": 10320,
			"target": 34962
		},
		{
			"buffer": 0,
			"byteLength": 14424,
			"byteOffset": 24744,
			"target": 34962
		},
		{
			"buffer": 0,
			"byteLength": 19232,
			"byteOffset": 39168,
			"target": 34962
		},
		{
			"buffer": 0,
			"byteLength": 9616,
			"byteOffset": 58400,
			"target": 34962
		}
	],
	"materials": [
		{
			"name": "MI_MetalChromeClean01_SM_BathroomFaucet19",
			"pbrMetallicRoughness":
			{
				"baseColorFactor": [ 0.846873224, 0.846873224, 0.846873224, 1 ],
				"roughnessFactor": 0.0980392247
			},
			"alphaMode": "MASK",
			"alphaCutoff": 0.333299994
		}
	],
	"meshes": [
		{
			"name": "SM_BathroomFaucet19",
			"primitives": [
				{
					"attributes":
					{
						"POSITION": 1,
						"NORMAL": 2,
						"TANGENT": 3,
						"TEXCOORD_0": 4
					},
					"indices": 0,
					"material": 0
				}
			]
		}
	],
	"nodes": [
		{
			"mesh": 0
		}
	],
	"scenes": [
		{
			"nodes": [ 0 ]
		}
	]
}