{
	"asset":
	{
		"version": "2.0",
		"generator": "Unreal Engine 5.2.1"
	},
	"scene": 0,
	"accessors": [
		{
			"bufferView": 0,
			"count": 1272,
			"type": "SCALAR",
			"componentType": 5123
		},
		{
			"bufferView": 1,
			"count": 266,
			"type": "VEC3",
			"componentType": 5126,
			"min": [ -0.101658754, -7.51576154e-05, -0.00666103 ],
			"max": [ 0.100072779, 0.00610399852, 0.00729112606 ]
		},
		{
			"bufferView": 2,
			"count": 266,
			"type": "VEC3",
			"componentType": 5126
		},
		{
			"bufferView": 3,
			"count": 266,
			"type": "VEC4",
			"componentType": 5126
		},
		{
			"bufferView": 4,
			"count": 266,
			"type": "VEC2",
			"componentType": 5126
		},
		{
			"bufferView": 5,
			"count": 266,
			"type": "VEC2",
			"componentType": 5126
		}
	],
	"buffers": [
		{
			"uri": "knife.bin",
			"byteLength": 17440
		}
	],
	"bufferViews": [
		{
			"buffer": 0,
			"byteLength": 2544,
			"target": 34963
		},
		{
			"buffer": 0,
			"byteLength": 3192,
			"byteOffset": 2544,
			"target": 34962
		},
		{
			"buffer": 0,
			"byteLength": 3192,
			"byteOffset": 5736,
			"target": 34962
		},
		{
			"buffer": 0,
			"byteLength": 4256,
			"byteOffset": 8928,
			"target": 34962
		},
		{
			"buffer": 0,
			"byteLength": 2128,
			"byteOffset": 13184,
			"target": 34962
		},
		{
			"buffer": 0,
			"byteLength": 2128,
			"byteOffset": 15312,
			"target": 34962
		}
	],
	"images": [
		{
			"uri": "M_Cutlery_BaseColor.png"
		},
		{
			"uri": "M_Cutlery_MetallicRoughness.png"
		},
		{
			"uri": "M_Cutlery_Normal.png"
		},
		{
			"uri": "M_Cutlery_Occlusion.png"
		}
	],
	"materials": [
		{
			"name": "M_Cutlery",
			"pbrMetallicRoughness":
			{
				"baseColorTexture":
				{
					"index": 0
				},
				"metallicRoughnessTexture":
				{
					"index": 1
				}
			},
			"normalTexture":
			{
				"index": 2
			},
			"occlusionTexture":
			{
				"index": 3
			}
		}
	],
	"meshes": [
		{
			"name": "SM_Knife",
			"primitives": [
				{
					"attributes":
					{
						"POSITION": 1,
						"NORMAL": 2,
						"TANGENT": 3,
						"TEXCOORD_0": 4,
						"TEXCOORD_1": 5
					},
					"indices": 0,
					"material": 0
				}
			]
		}
	],
	"nodes": [
		{
			"mesh": 0
		}
	],
	"samplers": [
		{
			"minFilter": 9987,
			"magFilter": 9729
		}
	],
	"scenes": [
		{
			"nodes": [ 0 ]
		}
	],
	"textures": [
		{
			"name": "M_Cutlery_BaseColor",
			"sampler": 0,
			"source": 0
		},
		{
			"name": "M_Cutlery_MetallicRoughness",
			"sampler": 0,
			"source": 1
		},
		{
			"name": "M_Cutlery_Normal",
			"sampler": 0,
			"source": 2
		},
		{
			"name": "M_Cutlery_Occlusion",
			"sampler": 0,
			"source": 3
		}
	]
}