{
	"asset":
	{
		"version": "2.0",
		"generator": "Unreal Engine 5.3.2"
	},
	"scene": 0,
	"accessors": [
		{
			"bufferView": 0,
			"count": 2508,
			"type": "SCALAR",
			"componentType": 5123
		},
		{
			"bufferView": 1,
			"count": 916,
			"type": "VEC3",
			"componentType": 5126,
			"min": [ -0.580562174, 0.168825984, 5.06317418e-17 ],
			"max": [ 0.580562174, 1.40921831, 0.393021762 ]
		},
		{
			"bufferView": 2,
			"count": 916,
			"type": "VEC3",
			"componentType": 5126
		},
		{
			"bufferView": 3,
			"count": 916,
			"type": "VEC4",
			"componentType": 5126
		},
		{
			"bufferView": 4,
			"count": 916,
			"type": "VEC2",
			"componentType": 5126
		},
		{
			"bufferView": 5,
			"count": 916,
			"type": "VEC2",
			"componentType": 5126
		},
		{
			"bufferView": 6,
			"count": 540,
			"type": "SCALAR",
			"componentType": 5121
		},
		{
			"bufferView": 7,
			"count": 236,
			"type": "VEC3",
			"componentType": 5126,
			"min": [ -0.52657342, -2.16791697e-17, 0.0297389794 ],
			"max": [ 0.52657342, 0.168888777, 0.363683999 ]
		},
		{
			"bufferView": 8,
			"count": 236,
			"type": "VEC3",
			"componentType": 5126
		},
		{
			"bufferView": 9,
			"count": 236,
			"type": "VEC4",
			"componentType": 5126
		},
		{
			"bufferView": 10,
			"count": 236,
			"type": "VEC2",
			"componentType": 5126
		},
		{
			"bufferView": 11,
			"count": 236,
			"type": "VEC2",
			"componentType": 5126
		},
		{
			"bufferView": 12,
			"count": 0,
			"type": "VEC3",
			"componentType": 5126
		},
		{
			"bufferView": 13,
			"count": 0,
			"type": "VEC3",
			"componentType": 5126
		},
		{
			"bufferView": 14,
			"count": 0,
			"type": "VEC4",
			"componentType": 5126
		},
		{
			"bufferView": 15,
			"count": 0,
			"type": "VEC2",
			"componentType": 5126
		},
		{
			"bufferView": 16,
			"count": 0,
			"type": "VEC2",
			"componentType": 5126
		}
	],
	"buffers": [
		{
			"uri": "library2.bin",
			"byteLength": 70068
		}
	],
	"bufferViews": [
		{
			"buffer": 0,
			"byteLength": 5016,
			"target": 34963
		},
		{
			"buffer": 0,
			"byteLength": 10992,
			"byteOffset": 5016,
			"target": 34962
		},
		{
			"buffer": 0,
			"byteLength": 10992,
			"byteOffset": 16008,
			"target": 34962
		},
		{
			"buffer": 0,
			"byteLength": 14656,
			"byteOffset": 27000,
			"target": 34962
		},
		{
			"buffer": 0,
			"byteLength": 7328,
			"byteOffset": 41656,
			"target": 34962
		},
		{
			"buffer": 0,
			"byteLength": 7328,
			"byteOffset": 48984,
			"target": 34962
		},
		{
			"buffer": 0,
			"byteLength": 540,
			"byteOffset": 56312,
			"target": 34963
		},
		{
			"buffer": 0,
			"byteLength": 2832,
			"byteOffset": 56852,
			"target": 34962
		},
		{
			"buffer": 0,
			"byteLength": 2832,
			"byteOffset": 59684,
			"target": 34962
		},
		{
			"buffer": 0,
			"byteLength": 3776,
			"byteOffset": 62516,
			"target": 34962
		},
		{
			"buffer": 0,
			"byteLength": 1888,
			"byteOffset": 66292,
			"target": 34962
		},
		{
			"buffer": 0,
			"byteLength": 1888,
			"byteOffset": 68180,
			"target": 34962
		},
		{
			"buffer": 0,
			"byteLength": 0,
			"byteOffset": 70068,
			"target": 34962
		},
		{
			"buffer": 0,
			"byteLength": 0,
			"byteOffset": 70068,
			"target": 34962
		},
		{
			"buffer": 0,
			"byteLength": 0,
			"byteOffset": 70068,
			"target": 34962
		},
		{
			"buffer": 0,
			"byteLength": 0,
			"byteOffset": 70068,
			"target": 34962
		},
		{
			"buffer": 0,
			"byteLength": 0,
			"byteOffset": 70068,
			"target": 34962
		}
	],
	"images": [
		{
			"uri": "MI_WoodGlossy01Pine_BaseColor.png"
		},
		{
			"uri": "MI_WoodGlossy01Pine_MetallicRoughness.png"
		},
		{
			"uri": "MI_WoodGlossy01Pine_Normal.png"
		},
		{
			"uri": "MI_WoodWorn03Pine_BaseColor.png"
		},
		{
			"uri": "MI_WoodWorn03Pine_MetallicRoughness.png"
		},
		{
			"uri": "MI_WoodWorn03Pine_Normal.png"
		}
	],
	"materials": [
		{
			"name": "MI_WoodGlossy01Pine",
			"pbrMetallicRoughness":
			{
				"baseColorTexture":
				{
					"index": 0
				},
				"metallicRoughnessTexture":
				{
					"index": 1
				}
			},
			"normalTexture":
			{
				"index": 2
			},
			"alphaMode": "MASK",
			"alphaCutoff": 0.333299994
		},
		{
			"name": "MI_MetalChromeClean01",
			"pbrMetallicRoughness":
			{
				"baseColorFactor": [ 0.846873224, 0.846873224, 0.846873224, 1 ],
				"roughnessFactor": 0.0980392247
			},
			"alphaMode": "MASK",
			"alphaCutoff": 0.333299994
		},
		{
			"name": "MI_WoodWorn03Pine",
			"pbrMetallicRoughness":
			{
				"baseColorTexture":
				{
					"index": 3
				},
				"metallicRoughnessTexture":
				{
					"index": 4
				}
			},
			"normalTexture":
			{
				"index": 5
			},
			"alphaMode": "MASK",
			"alphaCutoff": 0.333299994
		}
	],
	"meshes": [
		{
			"name": "SM_Library08",
			"primitives": [
				{
					"attributes":
					{
						"POSITION": 1,
						"NORMAL": 2,
						"TANGENT": 3,
						"TEXCOORD_0": 4,
						"TEXCOORD_1": 5
					},
					"indices": 0,
					"material": 0
				},
				{
					"attributes":
					{
						"POSITION": 7,
						"NORMAL": 8,
						"TANGENT": 9,
						"TEXCOORD_0": 10,
						"TEXCOORD_1": 11
					},
					"indices": 6,
					"material": 1
				},
				{
					"attributes":
					{
						"POSITION": 12,
						"NORMAL": 13,
						"TANGENT": 14,
						"TEXCOORD_0": 15,
						"TEXCOORD_1": 16
					},
					"material": 2
				}
			]
		}
	],
	"nodes": [
		{
			"mesh": 0
		}
	],
	"samplers": [
		{
			"minFilter": 9984,
			"magFilter": 9728
		}
	],
	"scenes": [
		{
			"nodes": [ 0 ]
		}
	],
	"textures": [
		{
			"name": "MI_WoodGlossy01Pine_BaseColor",
			"sampler": 0,
			"source": 0
		},
		{
			"name": "MI_WoodGlossy01Pine_MetallicRoughness",
			"sampler": 0,
			"source": 1
		},
		{
			"name": "MI_WoodGlossy01Pine_Normal",
			"sampler": 0,
			"source": 2
		},
		{
			"name": "MI_WoodWorn03Pine_BaseColor",
			"sampler": 0,
			"source": 3
		},
		{
			"name": "MI_WoodWorn03Pine_MetallicRoughness",
			"sampler": 0,
			"source": 4
		},
		{
			"name": "MI_WoodWorn03Pine_Normal",
			"sampler": 0,
			"source": 5
		}
	]
}