{
	"asset":
	{
		"version": "2.0",
		"generator": "Unreal Engine 5.3.2"
	},
	"scene": 0,
	"accessors": [
		{
			"bufferView": 0,
			"count": 6522,
			"type": "SCALAR",
			"componentType": 5123
		},
		{
			"bufferView": 1,
			"count": 1498,
			"type": "VEC3",
			"componentType": 5126,
			"min": [ -0.0306740943, 3.81469718e-08, -0.0306740832 ],
			"max": [ 0.0306740366, 0.265010059, 0.149658486 ]
		},
		{
			"bufferView": 2,
			"count": 1498,
			"type": "VEC3",
			"componentType": 5126
		},
		{
			"bufferView": 3,
			"count": 1498,
			"type": "VEC4",
			"componentType": 5126
		},
		{
			"bufferView": 4,
			"count": 1498,
			"type": "VEC2",
			"componentType": 5126
		}
	],
	"buffers": [
		{
			"uri": "longfaucet.bin",
			"byteLength": 84948
		}
	],
	"bufferViews": [
		{
			"buffer": 0,
			"byteLength": 13044,
			"target": 34963
		},
		{
			"buffer": 0,
			"byteLength": 17976,
			"byteOffset": 13044,
			"target": 34962
		},
		{
			"buffer": 0,
			"byteLength": 17976,
			"byteOffset": 31020,
			"target": 34962
		},
		{
			"buffer": 0,
			"byteLength": 23968,
			"byteOffset": 48996,
			"target": 34962
		},
		{
			"buffer": 0,
			"byteLength": 11984,
			"byteOffset": 72964,
			"target": 34962
		}
	],
	"materials": [
		{
			"name": "MI_MetalChromeClean01_SM_BathroomFaucet20",
			"pbrMetallicRoughness":
			{
				"baseColorFactor": [ 0.846873224, 0.846873224, 0.846873224, 1 ],
				"roughnessFactor": 0.0980392247
			},
			"alphaMode": "MASK",
			"alphaCutoff": 0.333299994
		}
	],
	"meshes": [
		{
			"name": "SM_BathroomFaucet20",
			"primitives": [
				{
					"attributes":
					{
						"POSITION": 1,
						"NORMAL": 2,
						"TANGENT": 3,
						"TEXCOORD_0": 4
					},
					"indices": 0,
					"material": 0
				}
			]
		}
	],
	"nodes": [
		{
			"mesh": 0
		}
	],
	"scenes": [
		{
			"nodes": [ 0 ]
		}
	]
}