{
	"asset":
	{
		"version": "2.0",
		"generator": "Unreal Engine 5.3.2"
	},
	"scene": 0,
	"accessors": [
		{
			"bufferView": 0,
			"count": 22404,
			"type": "SCALAR",
			"componentType": 5123
		},
		{
			"bufferView": 1,
			"count": 4769,
			"type": "VEC3",
			"componentType": 5126,
			"min": [ -0.974570751, 0.0015480963, -1.37960947 ],
			"max": [ 0.0678039789, 0.857467771, 1.38276529 ]
		},
		{
			"bufferView": 2,
			"count": 4769,
			"type": "VEC3",
			"componentType": 5126
		},
		{
			"bufferView": 3,
			"count": 4769,
			"type": "VEC4",
			"componentType": 5126
		},
		{
			"bufferView": 4,
			"count": 4769,
			"type": "VEC2",
			"componentType": 5126
		}
	],
	"buffers": [
		{
			"uri": "lounge_sofa.bin",
			"byteLength": 273720
		}
	],
	"bufferViews": [
		{
			"buffer": 0,
			"byteLength": 44808,
			"target": 34963
		},
		{
			"buffer": 0,
			"byteLength": 57228,
			"byteOffset": 44808,
			"target": 34962
		},
		{
			"buffer": 0,
			"byteLength": 57228,
			"byteOffset": 102036,
			"target": 34962
		},
		{
			"buffer": 0,
			"byteLength": 76304,
			"byteOffset": 159264,
			"target": 34962
		},
		{
			"buffer": 0,
			"byteLength": 38152,
			"byteOffset": 235568,
			"target": 34962
		}
	],
	"images": [
		{
			"uri": "MI_Modern_Sofa_2_BaseColor.png"
		},
		{
			"uri": "MI_Modern_Sofa_2_MetallicRoughness.png"
		},
		{
			"uri": "MI_Modern_Sofa_2_Normal.png"
		},
		{
			"uri": "MI_Modern_Sofa_2_Occlusion.png"
		}
	],
	"materials": [
		{
			"name": "MI_Modern_Sofa_2",
			"pbrMetallicRoughness":
			{
				"baseColorTexture":
				{
					"index": 0
				},
				"metallicRoughnessTexture":
				{
					"index": 1
				}
			},
			"normalTexture":
			{
				"index": 2
			},
			"occlusionTexture":
			{
				"index": 3
			}
		}
	],
	"meshes": [
		{
			"name": "SM_Modern_Sofa_2",
			"primitives": [
				{
					"attributes":
					{
						"POSITION": 1,
						"NORMAL": 2,
						"TANGENT": 3,
						"TEXCOORD_0": 4
					},
					"indices": 0,
					"material": 0
				}
			]
		}
	],
	"nodes": [
		{
			"mesh": 0
		}
	],
	"samplers": [
		{
			"minFilter": 9987,
			"magFilter": 9729
		}
	],
	"scenes": [
		{
			"nodes": [ 0 ]
		}
	],
	"textures": [
		{
			"name": "MI_Modern_Sofa_2_BaseColor",
			"sampler": 0,
			"source": 0
		},
		{
			"name": "MI_Modern_Sofa_2_MetallicRoughness",
			"sampler": 0,
			"source": 1
		},
		{
			"name": "MI_Modern_Sofa_2_Normal",
			"sampler": 0,
			"source": 2
		},
		{
			"name": "MI_Modern_Sofa_2_Occlusion",
			"sampler": 0,
			"source": 3
		}
	]
}