{
	"asset":
	{
		"version": "2.0",
		"generator": "Unreal Engine 5.3.2"
	},
	"scene": 0,
	"accessors": [
		{
			"bufferView": 0,
			"count": 10794,
			"type": "SCALAR",
			"componentType": 5123
		},
		{
			"bufferView": 1,
			"count": 7275,
			"type": "VEC3",
			"componentType": 5126,
			"min": [ -0.0225910414, 5.78745007e-09, -0.0412077084 ],
			"max": [ 0.0226046871, 0.0293210167, 0.041266907 ]
		},
		{
			"bufferView": 2,
			"count": 7275,
			"type": "VEC3",
			"componentType": 5126
		},
		{
			"bufferView": 3,
			"count": 7275,
			"type": "VEC4",
			"componentType": 5126
		},
		{
			"bufferView": 4,
			"count": 7275,
			"type": "VEC2",
			"componentType": 5126
		}
	],
	"buffers": [
		{
			"uri": "mouse.bin",
			"byteLength": 370788
		}
	],
	"bufferViews": [
		{
			"buffer": 0,
			"byteLength": 21588,
			"target": 34963
		},
		{
			"buffer": 0,
			"byteLength": 87300,
			"byteOffset": 21588,
			"target": 34962
		},
		{
			"buffer": 0,
			"byteLength": 87300,
			"byteOffset": 108888,
			"target": 34962
		},
		{
			"buffer": 0,
			"byteLength": 116400,
			"byteOffset": 196188,
			"target": 34962
		},
		{
			"buffer": 0,
			"byteLength": 58200,
			"byteOffset": 312588,
			"target": 34962
		}
	],
	"images": [
		{
			"uri": "MI_PCKeyboardMouse01_BaseColor.png"
		},
		{
			"uri": "MI_PCKeyboardMouse01_MetallicRoughness.png"
		},
		{
			"uri": "MI_PCKeyboardMouse01_Normal.png"
		}
	],
	"materials": [
		{
			"name": "MI_PCKeyboardMouse01",
			"pbrMetallicRoughness":
			{
				"baseColorTexture":
				{
					"index": 0
				},
				"metallicRoughnessTexture":
				{
					"index": 1
				}
			},
			"normalTexture":
			{
				"index": 2
			},
			"alphaMode": "MASK"
		}
	],
	"meshes": [
		{
			"name": "SM_PCMouse01",
			"primitives": [
				{
					"attributes":
					{
						"POSITION": 1,
						"NORMAL": 2,
						"TANGENT": 3,
						"TEXCOORD_0": 4
					},
					"indices": 0,
					"material": 0
				}
			]
		}
	],
	"nodes": [
		{
			"mesh": 0
		}
	],
	"samplers": [
		{
			"minFilter": 9987,
			"magFilter": 9729
		}
	],
	"scenes": [
		{
			"nodes": [ 0 ]
		}
	],
	"textures": [
		{
			"name": "MI_PCKeyboardMouse01_BaseColor",
			"sampler": 0,
			"source": 0
		},
		{
			"name": "MI_PCKeyboardMouse01_MetallicRoughness",
			"sampler": 0,
			"source": 1
		},
		{
			"name": "MI_PCKeyboardMouse01_Normal",
			"sampler": 0,
			"source": 2
		}
	]
}