{
	"asset":
	{
		"version": "2.0",
		"generator": "Unreal Engine 5.3.2"
	},
	"scene": 0,
	"accessors": [
		{
			"bufferView": 0,
			"count": 246,
			"type": "SCALAR",
			"componentType": 5121
		},
		{
			"bufferView": 1,
			"count": 164,
			"type": "VEC3",
			"componentType": 5126,
			"min": [ -0.299919516, -0.299919516, -3.9681908e-16 ],
			"max": [ 0.299919516, 0.299919516, 0.0199999996 ]
		},
		{
			"bufferView": 2,
			"count": 164,
			"type": "VEC3",
			"componentType": 5126
		},
		{
			"bufferView": 3,
			"count": 164,
			"type": "VEC4",
			"componentType": 5126
		},
		{
			"bufferView": 4,
			"count": 164,
			"type": "VEC2",
			"componentType": 5126
		},
		{
			"bufferView": 5,
			"count": 164,
			"type": "VEC2",
			"componentType": 5126
		},
		{
			"bufferView": 6,
			"count": 6,
			"type": "SCALAR",
			"componentType": 5121
		},
		{
			"bufferView": 7,
			"count": 4,
			"type": "VEC3",
			"componentType": 5126,
			"min": [ -0.199919507, -0.199919507, 0.00999999885 ],
			"max": [ 0.199919507, 0.199919507, 0.00999999885 ]
		},
		{
			"bufferView": 8,
			"count": 4,
			"type": "VEC3",
			"componentType": 5126
		},
		{
			"bufferView": 9,
			"count": 4,
			"type": "VEC4",
			"componentType": 5126
		},
		{
			"bufferView": 10,
			"count": 4,
			"type": "VEC2",
			"componentType": 5126
		},
		{
			"bufferView": 11,
			"count": 4,
			"type": "VEC2",
			"componentType": 5126
		}
	],
	"buffers": [
		{
			"uri": "picture_flowers.bin",
			"byteLength": 9664
		}
	],
	"bufferViews": [
		{
			"buffer": 0,
			"byteLength": 246,
			"target": 34963
		},
		{
			"buffer": 0,
			"byteLength": 1968,
			"byteOffset": 248,
			"target": 34962
		},
		{
			"buffer": 0,
			"byteLength": 1968,
			"byteOffset": 2216,
			"target": 34962
		},
		{
			"buffer": 0,
			"byteLength": 2624,
			"byteOffset": 4184,
			"target": 34962
		},
		{
			"buffer": 0,
			"byteLength": 1312,
			"byteOffset": 6808,
			"target": 34962
		},
		{
			"buffer": 0,
			"byteLength": 1312,
			"byteOffset": 8120,
			"target": 34962
		},
		{
			"buffer": 0,
			"byteLength": 6,
			"byteOffset": 9432,
			"target": 34963
		},
		{
			"buffer": 0,
			"byteLength": 48,
			"byteOffset": 9440,
			"target": 34962
		},
		{
			"buffer": 0,
			"byteLength": 48,
			"byteOffset": 9488,
			"target": 34962
		},
		{
			"buffer": 0,
			"byteLength": 64,
			"byteOffset": 9536,
			"target": 34962
		},
		{
			"buffer": 0,
			"byteLength": 32,
			"byteOffset": 9600,
			"target": 34962
		},
		{
			"buffer": 0,
			"byteLength": 32,
			"byteOffset": 9632,
			"target": 34962
		}
	],
	"images": [
		{
			"uri": "T_Art_1.png"
		}
	],
	"materials": [
		{
			"name": "M_Picture_frame",
			"pbrMetallicRoughness":
			{
				"baseColorFactor": [ 0.800000012, 0.800000012, 0.800000012, 1 ],
				"metallicFactor": 0,
				"roughnessFactor": 0.5
			}
		},
		{
			"name": "M_Picture",
			"pbrMetallicRoughness":
			{
				"baseColorTexture":
				{
					"index": 0
				},
				"metallicFactor": 0,
				"roughnessFactor": 0.200000003
			}
		}
	],
	"meshes": [
		{
			"name": "SM_Picture",
			"primitives": [
				{
					"attributes":
					{
						"POSITION": 1,
						"NORMAL": 2,
						"TANGENT": 3,
						"TEXCOORD_0": 4,
						"TEXCOORD_1": 5
					},
					"indices": 0,
					"material": 0
				},
				{
					"attributes":
					{
						"POSITION": 7,
						"NORMAL": 8,
						"TANGENT": 9,
						"TEXCOORD_0": 10,
						"TEXCOORD_1": 11
					},
					"indices": 6,
					"material": 1
				}
			]
		}
	],
	"nodes": [
		{
			"mesh": 0
		}
	],
	"samplers": [
		{
			"minFilter": 9987,
			"magFilter": 9729
		}
	],
	"scenes": [
		{
			"nodes": [ 0 ]
		}
	],
	"textures": [
		{
			"name": "T_Art_1",
			"sampler": 0,
			"source": 0
		}
	]
}