{
	"asset":
	{
		"version": "2.0",
		"generator": "Unreal Engine 5.3.2"
	},
	"scene": 0,
	"accessors": [
		{
			"bufferView": 0,
			"count": 72,
			"type": "SCALAR",
			"componentType": 5121
		},
		{
			"bufferView": 1,
			"count": 48,
			"type": "VEC3",
			"componentType": 5126,
			"min": [ -0.162021562, 0.0293938722, 0.0278668106 ],
			"max": [ 0.162021562, 0.670198023, 0.293664664 ]
		},
		{
			"bufferView": 2,
			"count": 48,
			"type": "VEC3",
			"componentType": 5126
		},
		{
			"bufferView": 3,
			"count": 48,
			"type": "VEC4",
			"componentType": 5126
		},
		{
			"bufferView": 4,
			"count": 48,
			"type": "VEC2",
			"componentType": 5126
		},
		{
			"bufferView": 5,
			"count": 2772,
			"type": "SCALAR",
			"componentType": 5123
		},
		{
			"bufferView": 6,
			"count": 856,
			"type": "VEC3",
			"componentType": 5126,
			"min": [ -0.161999986, 1.41143817e-08, 0.0167657081 ],
			"max": [ 0.161999986, 0.679533064, 0.304765821 ]
		},
		{
			"bufferView": 7,
			"count": 856,
			"type": "VEC3",
			"componentType": 5126
		},
		{
			"bufferView": 8,
			"count": 856,
			"type": "VEC4",
			"componentType": 5126
		},
		{
			"bufferView": 9,
			"count": 856,
			"type": "VEC2",
			"componentType": 5126
		},
		{
			"bufferView": 10,
			"count": 3672,
			"type": "SCALAR",
			"componentType": 5123
		},
		{
			"bufferView": 11,
			"count": 1067,
			"type": "VEC3",
			"componentType": 5126,
			"min": [ -0.180642024, 0.0505293123, 6.20488526e-18 ],
			"max": [ 0.180642024, 0.705789328, 0.321585536 ]
		},
		{
			"bufferView": 12,
			"count": 1067,
			"type": "VEC3",
			"componentType": 5126
		},
		{
			"bufferView": 13,
			"count": 1067,
			"type": "VEC4",
			"componentType": 5126
		},
		{
			"bufferView": 14,
			"count": 1067,
			"type": "VEC2",
			"componentType": 5126
		}
	],
	"buffers": [
		{
			"uri": "storagebed2.bin",
			"byteLength": 107568
		}
	],
	"bufferViews": [
		{
			"buffer": 0,
			"byteLength": 72,
			"target": 34963
		},
		{
			"buffer": 0,
			"byteLength": 576,
			"byteOffset": 72,
			"target": 34962
		},
		{
			"buffer": 0,
			"byteLength": 576,
			"byteOffset": 648,
			"target": 34962
		},
		{
			"buffer": 0,
			"byteLength": 768,
			"byteOffset": 1224,
			"target": 34962
		},
		{
			"buffer": 0,
			"byteLength": 384,
			"byteOffset": 1992,
			"target": 34962
		},
		{
			"buffer": 0,
			"byteLength": 5544,
			"byteOffset": 2376,
			"target": 34963
		},
		{
			"buffer": 0,
			"byteLength": 10272,
			"byteOffset": 7920,
			"target": 34962
		},
		{
			"buffer": 0,
			"byteLength": 10272,
			"byteOffset": 18192,
			"target": 34962
		},
		{
			"buffer": 0,
			"byteLength": 13696,
			"byteOffset": 28464,
			"target": 34962
		},
		{
			"buffer": 0,
			"byteLength": 6848,
			"byteOffset": 42160,
			"target": 34962
		},
		{
			"buffer": 0,
			"byteLength": 7344,
			"byteOffset": 49008,
			"target": 34963
		},
		{
			"buffer": 0,
			"byteLength": 12804,
			"byteOffset": 56352,
			"target": 34962
		},
		{
			"buffer": 0,
			"byteLength": 12804,
			"byteOffset": 69156,
			"target": 34962
		},
		{
			"buffer": 0,
			"byteLength": 17072,
			"byteOffset": 81960,
			"target": 34962
		},
		{
			"buffer": 0,
			"byteLength": 8536,
			"byteOffset": 99032,
			"target": 34962
		}
	],
	"images": [
		{
			"uri": "MI_ScrewDecalMatteBlack_BaseColor.png"
		},
		{
			"uri": "MI_ScrewDecalMatteBlack_MetallicRoughness.png"
		},
		{
			"uri": "MI_ScrewDecalMatteBlack_Normal.png"
		},
		{
			"uri": "MI_WoodWhite01_BaseColor.png"
		},
		{
			"uri": "MI_WoodWhite01_MetallicRoughness.png"
		},
		{
			"uri": "MI_WoodCedarPlank01_BaseColor.png"
		},
		{
			"uri": "MI_WoodCedarPlank01_MetallicRoughness.png"
		},
		{
			"uri": "MI_WoodCedarPlank01_Normal.png"
		}
	],
	"materials": [
		{
			"name": "MI_ScrewDecalMatteBlack",
			"pbrMetallicRoughness":
			{
				"baseColorTexture":
				{
					"index": 0
				},
				"metallicRoughnessTexture":
				{
					"index": 1
				}
			},
			"normalTexture":
			{
				"index": 2
			},
			"alphaMode": "MASK",
			"alphaCutoff": 0.333299994
		},
		{
			"name": "MI_WoodWhite01",
			"pbrMetallicRoughness":
			{
				"baseColorTexture":
				{
					"index": 3
				},
				"metallicRoughnessTexture":
				{
					"index": 4
				}
			},
			"alphaMode": "MASK",
			"alphaCutoff": 0.333299994
		},
		{
			"name": "MI_WoodCedarPlank01",
			"pbrMetallicRoughness":
			{
				"baseColorTexture":
				{
					"index": 5
				},
				"metallicRoughnessTexture":
				{
					"index": 6
				}
			},
			"normalTexture":
			{
				"index": 7
			},
			"alphaMode": "MASK",
			"alphaCutoff": 0.333299994
		}
	],
	"meshes": [
		{
			"name": "SM_Storage38",
			"primitives": [
				{
					"attributes":
					{
						"POSITION": 1,
						"NORMAL": 2,
						"TANGENT": 3,
						"TEXCOORD_0": 4
					},
					"indices": 0,
					"material": 0
				},
				{
					"attributes":
					{
						"POSITION": 6,
						"NORMAL": 7,
						"TANGENT": 8,
						"TEXCOORD_0": 9
					},
					"indices": 5,
					"material": 1
				},
				{
					"attributes":
					{
						"POSITION": 11,
						"NORMAL": 12,
						"TANGENT": 13,
						"TEXCOORD_0": 14
					},
					"indices": 10,
					"material": 2
				}
			]
		}
	],
	"nodes": [
		{
			"mesh": 0
		}
	],
	"samplers": [
		{
			"minFilter": 9987,
			"magFilter": 9729
		}
	],
	"scenes": [
		{
			"nodes": [ 0 ]
		}
	],
	"textures": [
		{
			"name": "MI_ScrewDecalMatteBlack_BaseColor",
			"sampler": 0,
			"source": 0
		},
		{
			"name": "MI_ScrewDecalMatteBlack_MetallicRoughness",
			"sampler": 0,
			"source": 1
		},
		{
			"name": "MI_ScrewDecalMatteBlack_Normal",
			"sampler": 0,
			"source": 2
		},
		{
			"name": "MI_WoodWhite01_BaseColor",
			"sampler": 0,
			"source": 3
		},
		{
			"name": "MI_WoodWhite01_MetallicRoughness",
			"sampler": 0,
			"source": 4
		},
		{
			"name": "MI_WoodCedarPlank01_BaseColor",
			"sampler": 0,
			"source": 5
		},
		{
			"name": "MI_WoodCedarPlank01_MetallicRoughness",
			"sampler": 0,
			"source": 6
		},
		{
			"name": "MI_WoodCedarPlank01_Normal",
			"sampler": 0,
			"source": 7
		}
	]
}