{
	"asset":
	{
		"version": "2.0",
		"generator": "Unreal Engine 5.3.2"
	},
	"scene": 0,
	"accessors": [
		{
			"bufferView": 0,
			"count": 47772,
			"type": "SCALAR",
			"componentType": 5123
		},
		{
			"bufferView": 1,
			"count": 8218,
			"type": "VEC3",
			"componentType": 5126,
			"min": [ -0.132949844, -0.000654931529, -0.113974378 ],
			"max": [ 0.106551424, 0.0667463988, 0.153422713 ]
		},
		{
			"bufferView": 2,
			"count": 8218,
			"type": "VEC3",
			"componentType": 5126
		},
		{
			"bufferView": 3,
			"count": 8218,
			"type": "VEC4",
			"componentType": 5126
		},
		{
			"bufferView": 4,
			"count": 8218,
			"type": "VEC2",
			"componentType": 5126
		},
		{
			"bufferView": 5,
			"count": 8218,
			"type": "VEC2",
			"componentType": 5126
		}
	],
	"buffers": [
		{
			"uri": "towel2.bin",
			"byteLength": 555752
		}
	],
	"bufferViews": [
		{
			"buffer": 0,
			"byteLength": 95544,
			"target": 34963
		},
		{
			"buffer": 0,
			"byteLength": 98616,
			"byteOffset": 95544,
			"target": 34962
		},
		{
			"buffer": 0,
			"byteLength": 98616,
			"byteOffset": 194160,
			"target": 34962
		},
		{
			"buffer": 0,
			"byteLength": 131488,
			"byteOffset": 292776,
			"target": 34962
		},
		{
			"buffer": 0,
			"byteLength": 65744,
			"byteOffset": 424264,
			"target": 34962
		},
		{
			"buffer": 0,
			"byteLength": 65744,
			"byteOffset": 490008,
			"target": 34962
		}
	],
	"images": [
		{
			"uri": "MI_Towel04_SM_Towel04Medium_BaseColor.png"
		},
		{
			"uri": "MI_Towel04_SM_Towel04Medium_MetallicRoughness.png"
		},
		{
			"uri": "MI_Towel04_SM_Towel04Medium_Normal.png"
		}
	],
	"materials": [
		{
			"name": "MI_Towel04_SM_Towel04Medium",
			"pbrMetallicRoughness":
			{
				"baseColorTexture":
				{
					"index": 0,
					"texCoord": 1,
					"extensions":
					{
						"KHR_texture_transform":
						{
							"offset": [ -0.00825581327, -0.010502887 ],
							"scale": [ 1.02375209, 1.30239773 ]
						}
					}
				},
				"metallicRoughnessTexture":
				{
					"index": 1,
					"texCoord": 1,
					"extensions":
					{
						"KHR_texture_transform":
						{
							"offset": [ -0.00825581327, -0.010502887 ],
							"scale": [ 1.02375209, 1.30239773 ]
						}
					}
				}
			},
			"normalTexture":
			{
				"index": 2,
				"texCoord": 1,
				"extensions":
				{
					"KHR_texture_transform":
					{
						"offset": [ -0.00825581327, -0.010502887 ],
						"scale": [ 1.02375209, 1.30239773 ]
					}
				}
			},
			"alphaMode": "MASK",
			"alphaCutoff": 0.333299994
		}
	],
	"meshes": [
		{
			"name": "SM_Towel04Medium",
			"primitives": [
				{
					"attributes":
					{
						"POSITION": 1,
						"NORMAL": 2,
						"TANGENT": 3,
						"TEXCOORD_0": 4,
						"TEXCOORD_1": 5
					},
					"indices": 0,
					"material": 0
				}
			]
		}
	],
	"nodes": [
		{
			"mesh": 0
		}
	],
	"samplers": [
		{
			"minFilter": 9987,
			"magFilter": 9729
		}
	],
	"scenes": [
		{
			"nodes": [ 0 ]
		}
	],
	"textures": [
		{
			"name": "MI_Towel04_SM_Towel04Medium_BaseColor",
			"sampler": 0,
			"source": 0
		},
		{
			"name": "MI_Towel04_SM_Towel04Medium_MetallicRoughness",
			"sampler": 0,
			"source": 1
		},
		{
			"name": "MI_Towel04_SM_Towel04Medium_Normal",
			"sampler": 0,
			"source": 2
		}
	],
	"extensionsUsed": [
		"KHR_texture_transform"
	]
}