{
	"asset":
	{
		"version": "2.0",
		"generator": "Unreal Engine 5.3.2"
	},
	"scene": 0,
	"accessors": [
		{
			"bufferView": 0,
			"count": 6060,
			"type": "SCALAR",
			"componentType": 5123
		},
		{
			"bufferView": 1,
			"count": 1904,
			"type": "VEC3",
			"componentType": 5126,
			"min": [ -0.931702375, -5.88901344e-07, -0.360000134 ],
			"max": [ 0.931702495, 2.19543695, 0.360000104 ]
		},
		{
			"bufferView": 2,
			"count": 1904,
			"type": "VEC3",
			"componentType": 5126
		},
		{
			"bufferView": 3,
			"count": 1904,
			"type": "VEC4",
			"componentType": 5126
		},
		{
			"bufferView": 4,
			"count": 1904,
			"type": "VEC2",
			"componentType": 5126
		},
		{
			"bufferView": 5,
			"count": 1904,
			"type": "VEC2",
			"componentType": 5126
		},
		{
			"bufferView": 6,
			"count": 1904,
			"type": "VEC2",
			"componentType": 5126
		},
		{
			"bufferView": 7,
			"count": 1904,
			"type": "VEC2",
			"componentType": 5126
		},
		{
			"bufferView": 8,
			"count": 480,
			"type": "SCALAR",
			"componentType": 5121
		},
		{
			"bufferView": 9,
			"count": 224,
			"type": "VEC3",
			"componentType": 5126,
			"min": [ -0.931702375, 0.058499407, -0.360000134 ],
			"max": [ 0.931702495, 2.17743707, 0.360000104 ]
		},
		{
			"bufferView": 10,
			"count": 224,
			"type": "VEC3",
			"componentType": 5126
		},
		{
			"bufferView": 11,
			"count": 224,
			"type": "VEC4",
			"componentType": 5126
		},
		{
			"bufferView": 12,
			"count": 224,
			"type": "VEC2",
			"componentType": 5126
		},
		{
			"bufferView": 13,
			"count": 224,
			"type": "VEC2",
			"componentType": 5126
		},
		{
			"bufferView": 14,
			"count": 224,
			"type": "VEC2",
			"componentType": 5126
		},
		{
			"bufferView": 15,
			"count": 224,
			"type": "VEC2",
			"componentType": 5126
		}
	],
	"buffers": [
		{
			"uri": "wardrobe1.bin",
			"byteLength": 165816
		}
	],
	"bufferViews": [
		{
			"buffer": 0,
			"byteLength": 12120,
			"target": 34963
		},
		{
			"buffer": 0,
			"byteLength": 22848,
			"byteOffset": 12120,
			"target": 34962
		},
		{
			"buffer": 0,
			"byteLength": 22848,
			"byteOffset": 34968,
			"target": 34962
		},
		{
			"buffer": 0,
			"byteLength": 30464,
			"byteOffset": 57816,
			"target": 34962
		},
		{
			"buffer": 0,
			"byteLength": 15232,
			"byteOffset": 88280,
			"target": 34962
		},
		{
			"buffer": 0,
			"byteLength": 15232,
			"byteOffset": 103512,
			"target": 34962
		},
		{
			"buffer": 0,
			"byteLength": 15232,
			"byteOffset": 118744,
			"target": 34962
		},
		{
			"buffer": 0,
			"byteLength": 15232,
			"byteOffset": 133976,
			"target": 34962
		},
		{
			"buffer": 0,
			"byteLength": 480,
			"byteOffset": 149208,
			"target": 34963
		},
		{
			"buffer": 0,
			"byteLength": 2688,
			"byteOffset": 149688,
			"target": 34962
		},
		{
			"buffer": 0,
			"byteLength": 2688,
			"byteOffset": 152376,
			"target": 34962
		},
		{
			"buffer": 0,
			"byteLength": 3584,
			"byteOffset": 155064,
			"target": 34962
		},
		{
			"buffer": 0,
			"byteLength": 1792,
			"byteOffset": 158648,
			"target": 34962
		},
		{
			"buffer": 0,
			"byteLength": 1792,
			"byteOffset": 160440,
			"target": 34962
		},
		{
			"buffer": 0,
			"byteLength": 1792,
			"byteOffset": 162232,
			"target": 34962
		},
		{
			"buffer": 0,
			"byteLength": 1792,
			"byteOffset": 164024,
			"target": 34962
		}
	],
	"materials": [
		{
			"name": "MI_PlasticSet01",
			"pbrMetallicRoughness":
			{
				"baseColorFactor": [ 0.502886474, 0.502886474, 0.502886474, 1 ],
				"metallicFactor": 0,
				"roughnessFactor": 0.419607878
			}
		},
		{
			"name": "MI_PlasticSet06",
			"pbrMetallicRoughness":
			{
				"baseColorFactor": [ 0.0578054301, 0.0578054301, 0.0578054301, 1 ],
				"metallicFactor": 0.0196078438,
				"roughnessFactor": 0.419607878
			}
		}
	],
	"meshes": [
		{
			"name": "SM_WardrobeSet03Base",
			"primitives": [
				{
					"attributes":
					{
						"POSITION": 1,
						"NORMAL": 2,
						"TANGENT": 3,
						"TEXCOORD_0": 4,
						"TEXCOORD_1": 5,
						"TEXCOORD_2": 6,
						"TEXCOORD_3": 7
					},
					"indices": 0,
					"material": 0
				},
				{
					"attributes":
					{
						"POSITION": 9,
						"NORMAL": 10,
						"TANGENT": 11,
						"TEXCOORD_0": 12,
						"TEXCOORD_1": 13,
						"TEXCOORD_2": 14,
						"TEXCOORD_3": 15
					},
					"indices": 8,
					"material": 1
				}
			]
		}
	],
	"nodes": [
		{
			"mesh": 0
		}
	],
	"scenes": [
		{
			"nodes": [ 0 ]
		}
	]
}