{
  "accessors": [
    {
      "bufferView": 2,
      "componentType": 5126,
      "count": 855,
      "max": [
        9.644371032714844,
        10.99583911895752,
        0.5665627717971802
      ],
      "min": [
        -8.681787490844727,
        -1.1479101181030273,
        -18.461896896362305
      ],
      "type": "VEC3"
    },
    {
      "bufferView": 2,
      "byteOffset": 10260,
      "componentType": 5126,
      "count": 855,
      "max": [
        1.0,
        0.9952857494354248,
        0.9880817532539368
      ],
      "min": [
        -1.0,
        -0.9130357503890991,
        -0.9862040281295776
      ],
      "type": "VEC3"
    },
    {
      "bufferView": 1,
      "componentType": 5126,
      "count": 855,
      "max": [
        0.969780683517456,
        0.9885017275810242
      ],
      "min": [
        0.017818760126829147,
        0.28255996108055115
      ],
      "type": "VEC2"
    },
    {
      "bufferView": 1,
      "byteOffset": 6840,
      "componentType": 5126,
      "count": 855,
      "max": [
        0.969780683517456,
        0.9885017275810242
      ],
      "min": [
        0.017818760126829147,
        0.28255996108055115
      ],
      "type": "VEC2"
    },
    {
      "bufferView": 0,
      "componentType": 5125,
      "count": 2388,
      "type": "SCALAR"
    },
    {
      "bufferView": 2,
      "byteOffset": 20520,
      "componentType": 5126,
      "count": 3336,
      "max": [
        6.994317531585693,
        1.4405137300491333,
        1.4198684692382813
      ],
      "min": [
        -6.994317531585693,
        -1.4405137300491333,
        -1.4198684692382813
      ],
      "type": "VEC3"
    },
    {
      "bufferView": 2,
      "byteOffset": 60552,
      "componentType": 5126,
      "count": 3336,
      "max": [
        1.0,
        1.0,
        1.0
      ],
      "min": [
        -1.0,
        -1.0,
        -1.0
      ],
      "type": "VEC3"
    },
    {
      "bufferView": 1,
      "byteOffset": 13680,
      "componentType": 5126,
      "count": 3336,
      "max": [
        0.9595839977264404,
        0.21323776245117188
      ],
      "min": [
        0.7985490560531616,
        0.0529090017080307
      ],
      "type": "VEC2"
    },
    {
      "bufferView": 1,
      "byteOffset": 40368,
      "componentType": 5126,
      "count": 3336,
      "max": [
        0.9595839977264404,
        0.21323776245117188
      ],
      "min": [
        0.7985490560531616,
        0.0529090017080307
      ],
      "type": "VEC2"
    },
    {
      "bufferView": 0,
      "byteOffset": 9552,
      "componentType": 5125,
      "count": 19908,
      "type": "SCALAR"
    }
  ],
  "asset": {
    "extras": {
      "author": "SamIsTwisted (https://sketchfab.com/samtwisted)",
      "license": "CC-BY-4.0 (http://creativecommons.org/licenses/by/4.0/)",
      "source": "https://sketchfab.com/3d-models/notepad-with-ringbinders-0d6afdab83314807ad3d33da9408f6d2",
      "title": "Notepad with ringbinders"
    },
    "generator": "Sketchfab-14.86.0",
    "version": "2.0"
  },
  "bufferViews": [
    {
      "buffer": 0,
      "byteLength": 89184,
      "name": "floatBufferViews",
      "target": 34963
    },
    {
      "buffer": 0,
      "byteLength": 67056,
      "byteOffset": 89184,
      "byteStride": 8,
      "name": "floatBufferViews",
      "target": 34962
    },
    {
      "buffer": 0,
      "byteLength": 100584,
      "byteOffset": 156240,
      "byteStride": 12,
      "name": "floatBufferViews",
      "target": 34962
    }
  ],
  "buffers": [
    {
      "byteLength": 256824,
      "uri": "scene.bin"
    }
  ],
  "images": [
    {
      "uri": "textures/Material.002_baseColor.png"
    },
    {
      "uri": "textures/Material.002_metallicRoughness.png"
    }
  ],
  "materials": [
    {
      "doubleSided": true,
      "name": "Material.002",
      "pbrMetallicRoughness": {
        "baseColorTexture": {
          "index": 0
        },
        "metallicRoughnessTexture": {
          "index": 1
        }
      }
    }
  ],
  "meshes": [
    {
      "name": "Torus.002_Material.002_0",
      "primitives": [
        {
          "attributes": {
            "NORMAL": 1,
            "POSITION": 0,
            "TEXCOORD_0": 2,
            "TEXCOORD_1": 3
          },
          "indices": 4,
          "material": 0,
          "mode": 4
        }
      ]
    },
    {
      "name": "Torus.003_Material.002_0",
      "primitives": [
        {
          "attributes": {
            "NORMAL": 6,
            "POSITION": 5,
            "TEXCOORD_0": 7,
            "TEXCOORD_1": 8
          },
          "indices": 9,
          "material": 0,
          "mode": 4
        }
      ]
    }
  ],
  "nodes": [
    {
      "children": [
        1
      ],
      "matrix": [
        1.0,
        0.0,
        0.0,
        0.0,
        0.0,
        2.220446049250313e-16,
        -1.0,
        0.0,
        0.0,
        1.0,
        2.220446049250313e-16,
        0.0,
        0.0,
        0.0,
        0.0,
        1.0
      ],
      "name": "Sketchfab_model"
    },
    {
      "children": [
        2
      ],
      "matrix": [
        0.009999999776482582,
        0.0,
        0.0,
        0.0,
        0.0,
        0.0,
        0.009999999776482582,
        0.0,
        0.0,
        -0.009999999776482582,
        0.0,
        0.0,
        0.0,
        0.0,
        0.0,
        1.0
      ],
      "name": "NotepadwithRingbindings.fbx"
    },
    {
      "children": [
        3,
        5
      ],
      "name": "RootNode"
    },
    {
      "children": [
        4
      ],
      "matrix": [
        53.000003814697266,
        0.0,
        0.0,
        0.0,
        0.0,
        45.3588085011217,
        -27.414931905050764,
        0.0,
        0.0,
        27.414931905050764,
        45.3588085011217,
        0.0,
        231.1755828857422,
        0.0,
        0.0,
        1.0
      ],
      "name": "Torus.002"
    },
    {
      "mesh": 0,
      "name": "Torus.002_Material.002_0"
    },
    {
      "children": [
        6
      ],
      "matrix": [
        53.000003814697266,
        0.0,
        0.0,
        0.0,
        0.0,
        45.3588085011217,
        -27.414931905050764,
        0.0,
        0.0,
        27.414931905050764,
        45.3588085011217,
        0.0,
        231.1755828857422,
        0.0,
        0.0,
        1.0
      ],
      "name": "Torus.003"
    },
    {
      "mesh": 1,
      "name": "Torus.003_Material.002_0"
    }
  ],
  "samplers": [
    {
      "magFilter": 9729,
      "minFilter": 9987,
      "wrapS": 10497,
      "wrapT": 10497
    }
  ],
  "scene": 0,
  "scenes": [
    {
      "name": "Sketchfab_Scene",
      "nodes": [
        0
      ]
    }
  ],
  "textures": [
    {
      "sampler": 0,
      "source": 0
    },
    {
      "sampler": 0,
      "source": 1
    }
  ]
}
